<?xml version="1.0" encoding="utf-8"?>
<!-- Generator: Adobe Illustrator 21.1.0, SVG Export Plug-In . SVG Version: 6.00 Build 0)  -->
<svg version="1.1" id="Layer_1" xmlns="http://www.w3.org/2000/svg" xmlns:xlink="http://www.w3.org/1999/xlink" x="0px" y="0px"
	 viewBox="0 0 576 792" style="enable-background:new 0 0 576 792;" xml:space="preserve">
<style type="text/css">
	.st0{fill:#AF5C5C;}
	.st1{fill:#79A2A3;}
</style>
<rect x="15" y="-7" class="st0" width="4" height="835"/>
<rect x="-24" y="82" class="st1" width="557" height="12"/>
<rect x="-24" y="133" class="st1" width="557" height="12"/>
<rect x="-24" y="184" class="st1" width="557" height="12"/>
<rect x="-24" y="229" class="st1" width="557" height="12"/>
<rect x="-24" y="274" class="st1" width="557" height="12"/>
<rect x="-23" y="319" class="st1" width="557" height="12"/>
<rect x="-23" y="364" class="st1" width="557" height="12"/>
<rect x="-24" y="409" class="st1" width="557" height="12"/>
<rect x="-23" y="454" class="st1" width="557" height="12"/>
<rect x="-24" y="499" class="st1" width="557" height="12"/>
<rect x="-24" y="544" class="st1" width="557" height="12"/>
<rect x="-24" y="589" class="st1" width="557" height="12"/>
<rect x="-24" y="634" class="st1" width="557" height="12"/>
<rect x="-24" y="679" class="st1" width="557" height="12"/>
<rect x="-24" y="724" class="st1" width="557" height="12"/>
<rect x="-23" y="769" class="st1" width="557" height="12"/>
</svg>
